<mxfile host="app.diagrams.net" agent="Mozilla/5.0 (Windows NT 10.0; Win64; x64) AppleWebKit/537.36 (KHTML, like Gecko) Chrome/132.0.0.0 Safari/537.36" version="26.0.9">
  <diagram id="f106602c-feb2-e66a-4537-3a34d633f6aa" name="Page-1">
    <mxGraphModel dx="904" dy="1402" grid="1" gridSize="10" guides="1" tooltips="1" connect="1" arrows="1" fold="1" page="1" pageScale="1" pageWidth="1169" pageHeight="827" background="none" math="0" shadow="0">
      <root>
        <mxCell id="0" />
        <mxCell id="1" parent="0" />
        <mxCell id="Lif8JBEafslfNm7ranTe-1" value="&lt;b&gt;Google &lt;/b&gt;Cloud Platform" style="fillColor=#F6F6F6;strokeColor=none;shadow=0;gradientColor=none;fontSize=14;align=left;spacing=10;fontColor=#717171;9E9E9E;verticalAlign=top;spacingTop=-4;fontStyle=0;spacingLeft=40;html=1;" parent="1" vertex="1">
          <mxGeometry x="320" y="40" width="580" height="310" as="geometry" />
        </mxCell>
        <mxCell id="Lif8JBEafslfNm7ranTe-2" value="" style="shape=mxgraph.gcp2.google_cloud_platform;fillColor=#F6F6F6;strokeColor=none;shadow=0;gradientColor=none;" parent="Lif8JBEafslfNm7ranTe-1" vertex="1">
          <mxGeometry width="23" height="20" relative="1" as="geometry">
            <mxPoint x="20" y="10" as="offset" />
          </mxGeometry>
        </mxCell>
        <mxCell id="hUaz1e9rTDMCQRMf4-1v-33" value="" style="edgeStyle=orthogonalEdgeStyle;rounded=0;orthogonalLoop=1;jettySize=auto;html=1;" parent="Lif8JBEafslfNm7ranTe-1" source="hUaz1e9rTDMCQRMf4-1v-7" target="hUaz1e9rTDMCQRMf4-1v-10" edge="1">
          <mxGeometry relative="1" as="geometry" />
        </mxCell>
        <mxCell id="hUaz1e9rTDMCQRMf4-1v-7" value="" style="strokeColor=#dddddd;shadow=1;strokeWidth=1;rounded=1;absoluteArcSize=1;arcSize=2;" parent="Lif8JBEafslfNm7ranTe-1" vertex="1">
          <mxGeometry x="25.22" y="150" width="124.78" height="60" as="geometry" />
        </mxCell>
        <mxCell id="hUaz1e9rTDMCQRMf4-1v-8" value="Cloud&#xa;DNS" style="editableCssRules=.*;html=1;fontColor=#999999;shape=image;verticalLabelPosition=middle;verticalAlign=middle;labelPosition=right;align=left;spacingLeft=20;part=1;points=[];imageAspect=0;image=data:image/svg+xml,PHN2ZyB4bWxucz0iaHR0cDovL3d3dy53My5vcmcvMjAwMC9zdmciIHhtbG5zOnY9Imh0dHBzOi8vdmVjdGEuaW8vbmFubyIgd2lkdGg9IjIwIiBoZWlnaHQ9IjIwIiB2aWV3Qm94PSIwIDAgMjAgMjAiPiYjeGE7CTxzdHlsZSB0eXBlPSJ0ZXh0L2NzcyI+JiN4YTsJLnN0MHtmaWxsOiM0Mjg1ZjQ7fSYjeGE7CS5zdDF7ZmlsbDojNjY5ZGY2O30mI3hhOwkuc3Qye2ZpbGw6I2FlY2JmYTt9JiN4YTsJLnN0M3tmaWxsOiNmZmY7fSYjeGE7CTwvc3R5bGU+JiN4YTsJPHBhdGggY2xhc3M9InN0MCIgZD0iTTkgNmgydjEwSDl6Ii8+JiN4YTsJPHBhdGggY2xhc3M9InN0MSIgZD0iTTIwIDE3SDB2MmgyMHoiLz4mI3hhOwk8cGF0aCBjbGFzcz0ic3QyIiBkPSJNMTIgMTZIOHY0aDR6TTAgMGgyMHY2SDB6Ii8+JiN4YTsJPHBhdGggY2xhc3M9InN0MSIgZD0iTTEwIDBoMTB2NkgxMHoiLz4mI3hhOwk8cGF0aCBjbGFzcz0ic3QzIiBkPSJNMiAyaDJ2MkgyeiIvPiYjeGE7CTxwYXRoIGNsYXNzPSJzdDIiIGQ9Ik0wIDhoMjB2NkgweiIvPiYjeGE7CTxwYXRoIGNsYXNzPSJzdDEiIGQ9Ik0xMCA4aDEwdjZIMTB6Ii8+JiN4YTsJPHBhdGggY2xhc3M9InN0MyIgZD0iTTIgMTBoMnYySDJ6Ii8+JiN4YTs8L3N2Zz4=;" parent="hUaz1e9rTDMCQRMf4-1v-7" vertex="1">
          <mxGeometry width="30" height="30" relative="1" as="geometry">
            <mxPoint x="15" y="15" as="offset" />
          </mxGeometry>
        </mxCell>
        <mxCell id="hUaz1e9rTDMCQRMf4-1v-9" value="" style="strokeColor=#dddddd;shadow=1;strokeWidth=1;rounded=1;absoluteArcSize=1;arcSize=2;" parent="Lif8JBEafslfNm7ranTe-1" vertex="1">
          <mxGeometry x="200" y="150" width="150" height="60" as="geometry" />
        </mxCell>
        <mxCell id="hUaz1e9rTDMCQRMf4-1v-10" value="Cloud Run" style="editableCssRules=.*;html=1;fontColor=#999999;shape=image;verticalLabelPosition=middle;verticalAlign=middle;labelPosition=right;align=left;spacingLeft=20;part=1;points=[];imageAspect=0;image=data:image/svg+xml,PHN2ZyB4bWxucz0iaHR0cDovL3d3dy53My5vcmcvMjAwMC9zdmciIHhtbG5zOnY9Imh0dHBzOi8vdmVjdGEuaW8vbmFubyIgd2lkdGg9IjM2NS40NjQ5OTY3NzA0MjQ5MyIgaGVpZ2h0PSIzNzkuMjIyOTk0NDYzNTc3OTUiIHZpZXdCb3g9IjAgMCA5Ni42OTU5OTkxNDU1MDc4MSAxMDAuMzM1OTk4NTM1MTU2MjUiPiYjeGE7PHN0eWxlIHR5cGU9InRleHQvY3NzIj4mI3hhOwkuc3Qwe2ZpbGw6IzQyODVmNDt9JiN4YTsJLnN0MXtmaWxsOiNhZWNiZmE7fSYjeGE7PC9zdHlsZT4mI3hhOwk8cGF0aCBjbGFzcz0ic3QwIiBkPSJNMjkuNzk0IDEwMC4zMzZMNDYuOTIgNTAuMTY4aDQ5Ljc3NnpNMCA5OS42NzFsMTIuOTc2LTQ5LjUwMkgyOS4yMkwxNi44OTcgOTIuMDU0eiIvPiYjeGE7CTxwYXRoIGNsYXNzPSJzdDEiIGQ9Ik0yOS43OTQgMEw0Ni45MiA1MC4xNjhoNDkuNzc2ek0wIC42NjZsMTIuOTc2IDQ5LjUwMkgyOS4yMkwxNi44OTcgOC4yODN6Ii8+JiN4YTs8L3N2Zz4=;" parent="hUaz1e9rTDMCQRMf4-1v-9" vertex="1">
          <mxGeometry width="30" height="30" relative="1" as="geometry">
            <mxPoint x="15" y="15" as="offset" />
          </mxGeometry>
        </mxCell>
        <mxCell id="hUaz1e9rTDMCQRMf4-1v-11" value="" style="strokeColor=#dddddd;shadow=1;strokeWidth=1;rounded=1;absoluteArcSize=1;arcSize=2;" parent="Lif8JBEafslfNm7ranTe-1" vertex="1">
          <mxGeometry x="420" y="150" width="120" height="60" as="geometry" />
        </mxCell>
        <mxCell id="hUaz1e9rTDMCQRMf4-1v-12" value="Cloud&#xa;Storage" style="editableCssRules=.*;html=1;fontColor=#999999;shape=image;verticalLabelPosition=middle;verticalAlign=middle;labelPosition=right;align=left;spacingLeft=20;part=1;points=[];imageAspect=0;image=data:image/svg+xml,PHN2ZyB4bWxucz0iaHR0cDovL3d3dy53My5vcmcvMjAwMC9zdmciIHhtbG5zOnY9Imh0dHBzOi8vdmVjdGEuaW8vbmFubyIgd2lkdGg9IjIwIiBoZWlnaHQ9IjE2IiB2aWV3Qm94PSIwIDAgMjAgMTYiPiYjeGE7CTxzdHlsZSB0eXBlPSJ0ZXh0L2NzcyI+JiN4YTsJLnN0MHtmaWxsOiM0Mjg1ZjQ7fSYjeGE7CS5zdDF7ZmlsbDojNjY5ZGY2O30mI3hhOwkuc3Qye2ZpbGw6I2FlY2JmYTt9JiN4YTsJLnN0M3tmaWxsOiNmZmY7fSYjeGE7CTwvc3R5bGU+JiN4YTsJPHBhdGggY2xhc3M9InN0MiIgZD0iTTAgMGgyMHY3SDB6Ii8+JiN4YTsJPHBhdGggY2xhc3M9InN0MSIgZD0iTTE4IDBoMnY3aC0yeiIvPiYjeGE7CTxwYXRoIGNsYXNzPSJzdDAiIGQ9Ik0xOCA3bDItN2gtMnoiLz4mI3hhOwk8cGF0aCBjbGFzcz0ic3QxIiBkPSJNMCAwaDJ2N0gweiIvPiYjeGE7CTxnIGNsYXNzPSJzdDMiPiYjeGE7CQk8cGF0aCBkPSJNNCAzaDZ2MUg0eiIvPiYjeGE7CQk8cmVjdCB4PSIxMyIgeT0iMiIgd2lkdGg9IjMiIGhlaWdodD0iMyIgcng9IjEuNSIvPiYjeGE7CTwvZz4mI3hhOwk8cGF0aCBjbGFzcz0ic3QyIiBkPSJNMCA5aDIwdjdIMHoiLz4mI3hhOwk8cGF0aCBjbGFzcz0ic3QxIiBkPSJNMTggOWgydjdoLTJ6Ii8+JiN4YTsJPHBhdGggY2xhc3M9InN0MCIgZD0iTTE4IDE2bDItN2gtMnoiLz4mI3hhOwk8cGF0aCBjbGFzcz0ic3QxIiBkPSJNMCA5aDJ2N0gweiIvPiYjeGE7CTxnIGNsYXNzPSJzdDMiPiYjeGE7CQk8cGF0aCBkPSJNNCAxMmg2djFINHoiLz4mI3hhOwkJPHJlY3QgeD0iMTMiIHk9IjExIiB3aWR0aD0iMyIgaGVpZ2h0PSIzIiByeD0iMS41Ii8+JiN4YTsJPC9nPiYjeGE7PC9zdmc+;" parent="hUaz1e9rTDMCQRMf4-1v-11" vertex="1">
          <mxGeometry width="30" height="24" relative="1" as="geometry">
            <mxPoint x="15" y="18" as="offset" />
          </mxGeometry>
        </mxCell>
        <mxCell id="hUaz1e9rTDMCQRMf4-1v-13" value="" style="edgeStyle=orthogonalEdgeStyle;fontSize=12;html=1;endArrow=blockThin;endFill=1;rounded=0;strokeWidth=2;endSize=4;startSize=4;dashed=0;strokeColor=#4284F3;entryX=0;entryY=0.5;entryDx=0;entryDy=0;exitX=1;exitY=0.5;exitDx=0;exitDy=0;" parent="Lif8JBEafslfNm7ranTe-1" source="hUaz1e9rTDMCQRMf4-1v-9" target="hUaz1e9rTDMCQRMf4-1v-11" edge="1">
          <mxGeometry width="100" relative="1" as="geometry">
            <mxPoint x="210" y="225.70996978851966" as="sourcePoint" />
            <mxPoint x="310" y="225.70996978851966" as="targetPoint" />
          </mxGeometry>
        </mxCell>
        <mxCell id="hUaz1e9rTDMCQRMf4-1v-14" value="" style="edgeStyle=orthogonalEdgeStyle;fontSize=12;html=1;endArrow=blockThin;endFill=1;rounded=0;strokeWidth=2;endSize=4;startSize=4;dashed=0;strokeColor=#4284F3;exitX=1;exitY=0.5;exitDx=0;exitDy=0;entryX=0;entryY=0.5;entryDx=0;entryDy=0;" parent="Lif8JBEafslfNm7ranTe-1" source="hUaz1e9rTDMCQRMf4-1v-7" target="hUaz1e9rTDMCQRMf4-1v-9" edge="1">
          <mxGeometry width="100" relative="1" as="geometry">
            <mxPoint x="360" y="197.1647509578544" as="sourcePoint" />
            <mxPoint x="200" y="185.2873563218391" as="targetPoint" />
          </mxGeometry>
        </mxCell>
        <mxCell id="hUaz1e9rTDMCQRMf4-1v-34" value="Next.js + TypeScript + Hono" style="text;html=1;align=center;verticalAlign=middle;whiteSpace=wrap;rounded=0;" parent="Lif8JBEafslfNm7ranTe-1" vertex="1">
          <mxGeometry x="190" y="209.99831417624523" width="170" height="35.63218390804598" as="geometry" />
        </mxCell>
        <mxCell id="kuerMykgpRVJ2Fd1fveL-3" value="" style="edgeStyle=orthogonalEdgeStyle;fontSize=12;html=1;endArrow=blockThin;endFill=1;rounded=0;strokeWidth=2;endSize=4;startSize=4;dashed=0;strokeColor=#4284F3;entryX=0.5;entryY=0;entryDx=0;entryDy=0;" parent="Lif8JBEafslfNm7ranTe-1" target="hUaz1e9rTDMCQRMf4-1v-9" edge="1">
          <mxGeometry width="100" relative="1" as="geometry">
            <mxPoint x="470" y="120" as="sourcePoint" />
            <mxPoint x="290" y="120" as="targetPoint" />
            <Array as="points">
              <mxPoint x="275" y="120" />
            </Array>
          </mxGeometry>
        </mxCell>
        <mxCell id="hUaz1e9rTDMCQRMf4-1v-6" value="" style="shape=image;verticalLabelPosition=bottom;labelBackgroundColor=default;verticalAlign=top;aspect=fixed;imageAspect=0;image=data:image/png,iVBORw0KGgoAAAANSUhEUgAABAAAAAQACAYAAAB/HSuDAAAACXBIWXMAAAsTAAALEwEAmpwYAAAgAElEQVR4nOzdC7TkV13g+8qbAOENIaG79j6dJoFGkq46PCICkQV6JSgMYBiRJQpoxgsi4hUzM8js/+lOSAJmmL7DwxZnYIKP8aSqgzxFUB7DAJcJOjxHVFAQCJCQ7rP/1U266yT/u6oDMxjz6JM+dXY9Pp+1vmu5XIjdfepfv9+uU/WvVgsAAAAAAAAAAAAAAAAAAAAAAAAAAAAAAAAAAAAAAAAAAAAAAAAAAAAAAAAAAAAAAAAAAAAAAAAAAAAAAAAAAAAAAAAAAAAAAAAAAAAAAAAAAAAAAAAAAAAAAAAAAAAAAAAAAAAAAAAAAAAAAAAAAAAAAAAAAAAAAAAAAAAAAAAAAAAAAAAAAAAAAAAAAAAAAAAAAAAAAAAAAAAAAAAAAAAAAAAAAAAAAAAAAAAAAAAAAAAAAAAAAAAAAAAAAAAAAAAAAAAAAAAAAAAAAAAAAAAAAAAAAAAAAAAAAAAAAAAAAAAAAAAAAAAAAAAAAAAAAAAAAAAAAAAAAAAAAAAAAAAAAAAAAAAAAAAAAAAAAAAAAAAAAAAAAAAAAAAAAAAAAAAAAAAAAAAAAAAAAAAAAAAAAAAAAAAAAAAAAAAAAAAAAAAAAAAAAAAAAAAAAAAAAAAAAAAAAAAAAAAAAAAAAAAAAAAAAAAAAAAAAAAAAAAAAAAAAAAAAAAAAAAAAAAAAAAAAAAAAAAAAAAAAAAAAAAAAAAAAAAAAAAAAAAAAAAAAAAAAAAAAAAAAAAAAAAAAAAAAAAAAAAAAAAAAAAAAAAAAAAAAAAAAAAAAAAAAAAAAAAAAAAAAAAAAAAAAAAAAAAAAAAAAAAAAAAAAAAAAAAAAAAAAAAAAAAAAAAAAAAAAAAAAAAAAAAAAAAAAAAAAAAAAAAAAAAAAAAAAAAAAAAAAAAAAAAAAAAAAAAAAAAAAAAAAAAAAAAAAAAAAAAAAAAAAAAAAAAAAAAAAAAAAAAAAAAAAAAAAAAAAAAAAAAAAAAAAAAAAAAAAAAAAAAAAAAAAAAAAAAAAAAAAAAAAAAAAAAAAAAAAAAAAAAAAAAAAAAAAAAAAAAAAAAAAAAAAAAAAAAAAAAAAAAAAAAAAAAAAAAAAAAAAAAAAAAAAAAAAAAAAAAAAAAAAAAAAAAAAAAAAAAAAAAAAAAAAAAAAAAAAAAAAAAAAAAAAAAAAAAAAAAAAAAAAAAAAAAAAAAAAAAAAAAAAAAAAAAAAAAAAAAAAAAAAAAAAAAAAAAAAAAAAAAAAAAAAAAAAAAAAAAAAAAAAAAAAAAAAAAAAAAAAAAAAAAAAAAAAAAAAAAAAAAAAAAAAAAAAAAAAAAAAAAAAAAAAAAAAAAAAAAAAAAAAAAAAAAAAAAAAAAAAAAAAAAAAAAAAAAAAAAAAAAAAAAAAAAAAAAAAAAAAAAAAAAAAAAAAAAAAAAAAAAAAAAAAAAAAAAAAAAAAAAAAAAAAAAAAAAAAAAAAAAAAAAAAAAAAAAAAAAAAAAAAAAAAAAAAAAAAAAAAAAAAAAAAAAAAAAAAAAAAAAAAAAAAAAAAAAAAAAAAAAAAAAAAAAAAAAAAAAAAAAAAAAAAAAAAAAAAAAAAAAAAAAAAAAAAAAAAAAAAAAAAAAAAAAAAAAAAAAAAAAAAAAAAAAAAAAAAAAAAAAAAAAAAAAAAAAAAAAAAAAAAAAAAAAAAAAAAAAAAAAAAAAAAAAAAAAAAAAAAAAAAAAAAAAAAAAAAAAAAAAAAAAAAAAAAAAAAAAAAAAAAAAAAAAAAGDiNLu2nlSnLQ/al9pb9u3cfMb+He3F71en8KN1WnjKqJWl9tPqpYULRuWl+Izv/+9H/5nv/+cHKWw//N+T2lv2phD3Xdq+b+m/HwAAAMycJoW7jQ7fOW15fJ3ic+oqvqxO8dV1FXbnFP5rTuFP6xQ+UVfxf+UqXptTPFBXsRl7Kd5QV/FLOcVrcoofqKtwVZ3C79ZVuDyn8K9zFf/VytLCTw1Su1tfsnBq6X9HAAAAKCpfsvWBK6n9uEEVf75OYUdO4a2jQ32uwmfrFK/fkMP8BpRTuHH0gkGdwkdyir9fp/CaOsVfzUvhmaN3Gnwrbbtn6Z8FAAAAHJUbLtty75UUzh1U8eduOeTHP8xV+B91CvtKH8wnqZzCV3MV3p9TfH1dtV8y+jjCgZ1nbC798wMAAIB/omm1jjn8dv2l8Mw6haqu4tV1il8ufbCe/kL9vY8a/H5dhf+nXgpPGr2oUvrnDQAAwJwc9usdmx+Rq/aLDv/GOoWP1FVYKX9Yno9yijfXKfxNruIfDVL8DS8KAAAAsC6ufe2p9xjdHT+n+Fu5iu/+3k3wih+EddsvCozuL1CnhbOb1Dq29GMHAACACTZI4cF1Cj+Tq7Dr8NvPqzAsfcDVXeo7dRX+pK7Cy0c3G2yWW8eVfmwBAABQUJNOu/tgKf5fOcXfzlX49OHfJpc/vGq9G914McV3rVTxFStL8bFeEAAAAJgDt3yGP150+M7zVfxu8cOpSvSdOoXlnOKFg4vbp5V+TAIAALAORt81Xy8tXJCr+Ad1Fa6bgMOnJqic4mpdxY/nKrxysCN0Rjd6LP2YBQAA4AjlS7Y+MKeFX6yr8E6/5ddaylX8el2FN4++1nH0EZHSj2UAAABu5cDOGOoqvuyWt/a7eZ+OvpzigdGLSIMUnz/6RojSj3EAAIC5tT9tPr1O4ddzin9Z+rCoWS+s5BSuXEkLP9mkbSeWfuwDAADMvOvT1nuNfiN7y9v7/aZfRdp7+MWApYWfanYvnlD6mgAAAJgZo9+4rqT49FyFP77lbdnFD4DSLaXw7Zzivx99u0Tp6wQAAGBq1WnLD+Uq/MfDX9tW+qAn3VkpfixX7Rddd/lZp5S+dgAAACZes2vrSbd8bV94f07x5uKHOmmNHf7miRSW67TwFF8rCAAAcCs5hYcdfiu13/Zrtvr8LTeqPPMBpa8xAACAop/tr6vw3DqFD/ltv2a5w/euSOF33SsAAACYuzv511V8WU7hq6UPZtKGl+JHRx9zaZZbx5W+FgEAAMZi7872Qp3CZXUK+4ofwqTihb8dvRB27WtPvUfpaxMAAGBdrCyFH65T7OUUV8sfuqSJa3Tfi0v3p62bSl+rAAAAaza6+3lO4Vmjr0abgAOWNPHlKhwc3Sdg9E6Z0tcvAADAER38V5YWfipX8VOlD1TSNJareNPoawRXdsSzSl/PAAAA/4yDvzSeFwLyjvDw0tc3AACAg7+0ES8EVOGdg9Tulr7eAQCAOdSk1rF1is/JVfhs6QOSND/vCIg97wgAAAA2TL3UfrLf+EvlXgjIKVw5uLh9WunnAgAAYEbl1N42+kxy6QOQpMMvBOyvU7jshsu23Lv0cwMAADAjRt9PXldhd05xtfShR9KtSvH6XMWLml1bTyr9XAEAAEypb6Vt96xTqHKKB4ofciTdYTmFfxik+PzRjTlLP3cAAABTolluHVdX7ZeMfrNY+lAjaY2l+LH9O9qLpZ9HAACACbc/bXlUXYX/r/ghRtJR3ygwpzMfUPo5BQAAmDD70qb75SrsuuU7x8sfYCStS9+pq/iy0dd2ln6OAQAAChsdDEafG/Z2f2l2yyles7IUH1v6+QYAACjE2/2l+cnHAgAAYA7tTeE+dRXenFO8ufShRNIGl8K3B1X8+dLPQwAAwJgNUjg/p/DV4ocQSUXLKfzpgbSlXfo5CQAAWGf7Lm3ft67C7tKHDkmTVFjJKV7YtFrHlH6OAgAA1kG9tHDB6G2/5Q8bkiaz8OF96YytpZ+rAACAu2iQwoPrKvbLHy4kTXq5ivtzFS/ylYEAADBl6qr9vLqKe0sfKiRNVznFv9iX2ltKP4cBAAB34obLttw7V/EPSh8iJE1zoV5J4YWln88AAIDbsZLCuXWKf1f+8CBpRurvS5vuV/q5DQAA+J4mtY6vU6hyiqsTcGCQNEPlKnwlLy08ofTzHAAAzL29O9sLdYofLX1IkDS7HX5xMYXLmt2LJ5R+zgMAgLm0UoUXjD6rW/pwIGlOSuEjB9KWdunnPgAAmBtNCnerq/Dm4ocBSXNYWKmr8NzSz4MAADDzVnZseWiuwqfLHwIkzXdhd5O2nVj6OREAAGZSXorPqKu4t/ziL0mjjwTEjw4ubp9W+rkRAABm7S7/l+UUby6+8EvSD5bCt+ul8KTSz5MAADD19l+86SHu8i9pkstVGOYqXlT6+RIAAKZWXornHf7t2gQs+JJ0Z+Uq/Jfmik0nl37uBACAqZLTwi/mKhwsvdBL0lrKVfyrfam9pfRzKAAATLxmuXVcruLrSi/xknSXS/H60TuYSj+fAgDAxLru8rNOqVN4R/HlXZKOstE7mAYpPr/08yoAAEycfTs3n1FX8fOll3ZJWs9yFXY1qXVs6edYAACYCDltebyb/Uma2VJYdnNAAADm3koKL8wpHCq+oEvSWAv/LaczH1D6ORcAAIoYfW92TvHm8ou5JG1IX8opPKz0cy8AAGzonf7rKr5pApZxSdrovpNTfGLp52EAABi7ZtfWk0afh52AJVySipRTuDGn8KzSz8cAADA2+y5t37dO4SOll29JKl1OcXV0D5TSz8sAALDu9qfNp+cqfLr00i1Jk9It90AJLy/9/AwAAOsmp/a2XIV/LL1sS9IkllP8d6WfpwEAYH0O/yl+o/SCLUmTXE7x9U1qHVv6ORsAAO6SQWp36ypcV3qxlqRpKFfhbU1qHV/6uRsAANZkJYVz6yruLb1QS9KU1W/SthNLP4cDAMARyWnL4+sqrEzAIi1JU1dO8T2jr0wt/VwOAAB3KC/F8+oq1KUXaEma6lLc0+xePKH0czoAANymQQo/kVM8UHxxlqTZqO9FAAAAJk6dFp6Sq/jdCViYJWmGCle5MSAAABNjJbUfV6c4KL8oS9IMlsKyFwEAAChuZSk+tk4hF1+QJWmGy1X442a5dVzp53wAAObUIIXtdYo3lF6MJWkeyim8tUmtY0s/9wMAMGdW0sKZuYrXll6IJWmuSvGNpZ//AQCYI/t2bj4jV/HrxRdhSZrDchVeWXoOAAAwBw7sPGNzTuEfSi/AkjSv5RRvzmnhF0vPAwAAZtgNl225d67Cp0svv5I07+UUV/NS+9ml5wIAADOoSdtOzCl+oPTSK0m6pVzF7+YUn1h6PgAAMEOaVuuYnOLvl152JUm3LqyMvpGl9JwAAGBG5BT/ffklV5J0W41uyro3hVh6VgAAMOXqKry89HIrSbqTUvjrfWnT/UrPDAAAplSd4nNyFW8qvthKko6g8OHR/VpKzw4AAKbM6MZSoxtMlV9oJUlr6E2l5wcAAFNk9FnSOoVvT8AiK0laey8tPUcAAJgC30rb7plT+MwELLCSpLtQTnF1Zan9tNLzBACACf+6vzqF5dLLqyTpaAsrddryQ6XnCgAAE6quws7yS6skaV1K8cv5kq0PLD1bAACYMDmFZ+UUby6+sEqS1q8UPuKbAQAA+N8Gqd3NVdxffFGVJK17OcXXl54zAABMgPqShVNzCl8tvaBKksZZeG7peQMAQEFNah2bq/D+8oupJGmspTjIqb2t9NwBAKCQuoqXFF9KJUkbUwp/fX3aeq/SswcAgA02WApPzVW8qfhCKknasHIK/7X0/AEAYAPtT1s31VW4rvQiKkna+HIKLy49hwAA2ABNah1fp/jR0guoJKlMOYVDK6n9uNLzCACAMctVvKL08ilJKtvo219yOvMBpWcSAABjkpfiM3KKN5dePCVJk1D4k9JzCQCAMTiwM4Y6xRvKL5ySpEkpp3hh6fkEAMA6alLr2JziX5ReNCVJE1aKg5Ud8azScwoAgHWSq3hR8SVTkjSR5RSvaXYvnlB6VgEAcJQGO0InV+Fg6QVTkjTJhaXS8woAgKPQ7Np6Uk7hM+UXS0nSJJerMFxZCj9cem4BAHAX5SrsKr1USpKmpi9dd/lZp5SeXQAArFG9tPBjvvJPkrSmUvy90vMLAIA1WHn16ffPKX6t+CIpSZq68lJ8Ruk5BgDAEcop/n7pBVKSNJ3lKn59bwr3KT3LAAC4E4Ol8NTSy6MkadoLu0vPMwAA7sDo5k25Cl8pvzhKkqa5w/eQWWo/ufRcAwDgdtRVfEPppVGSNCOl8DfNFZtOLj3bAAC4lZUUzs1VvKn4wihJmqUuLT3fAAD4Ac2urSfVVfz8BCyKkqQZKldhuH9He7H0nAMA4HvqFC8uvSRKkmaznML/bHYvnlB61gEAzL16x5ZH5hQOlV4QJUmzW07xN0vPOwCAuda0WsfUKX609GIoSZrtchX3H9gZQ+m5BwAwtwYpPr/0UihJmpNSWC499wAA5tJ1l591Sq7i14svhJKk+Wlp4cdKzz8AgLmTU/zt4ougJGmuyil+rkmt40vPQACAuZF3hIe78Z8kqUhp4VdKz0EAgLmRq/je4gugJGk+S/GGnM58QOlZCAAw8/JS+9nFlz9J0rz3ptLzEABgpjVXbDq5ruLfT8DiJ0ma43IVb9qftjyq9FwEAJhZuQqvLL30SZJ0uBQ+0rRax5SejQAAM2f0ecu6CivFFz5Jkr5XXgrPLD0fAQBmTk7hP5Re9CRJ+iel8Ne+FhAAYB3tTSHmFG4svuhJknSrVqrwgtJzEgBgZuQq/kHpBU+SpNsqV+Erza6tJ5WelQAAU2+wI54zutty6QVPkqTbLYVfKz0vAQCmXk7hz4ovdpIk3WHhuuvT1nuVnpkAAFOrTuFHyy91kiQdQSlUpecmAMDUyil8svhCJ0nSkZRCzpdsfWDp2QkAMHUGKZxffJmTJGkN5Sq+rvT8BACYOnWKHy29yEmStJZGX1m7P20+vfQMBQCYGoMUf7z0EidJ0l0qhdeUnqMAAFOjTuEjxRc4SZLuSikOcjrzAaVnKQDAxKuX2k8uvrxJknQU5Sqm0vMUAGDi1Sl8qPTiJknSUfad6y4/65TSMxUAYGLlpfaPTMDSJknSUTdI8TdKz1UAgImVq/D+0gubJEnrUU7xG00Kdys9WwEAJs4gtbullzVJktazXIX/u/R8BQCYOLkKbyu9qEmStJ7lKnyl2b14QukZCwAwMfZfvOkhuQoHSy9qkiStf+3nlZ6zAAATo67ipeUXNEmS1r+c4jWl5ywAcJS+lbbdM+8ID6+XwpPqpYULctV+UZ3Cr+UqvqpO4TV1FXbfulyF/1incFmuwr85/J9N8cKcwrNy2vL4lbRw5ui/szVnrn3tqfcYfV1S6QVNkqRxtS8tPKb0vAUAbsfo83orO+JZgxTOz1X8pboKSzmFtx6+S32KX6hTyONaEnIV99dV+GKu4rtzFV+XU3hxvbTwYwfSlnZrBh3++03AciZJ0rga3eem9LwFAFqt1oGdMeSl9rPrFC+uU+yNDvg5hUOll4XbLlyXU/iz0bsI6hSfs3dne6E1xZrUOrZO4W/K/7tKkjS+Rve5GaTw4NJzFwDmSrNr60l5KZ6Xq5hu+Q17+NbULxUpfDWncOXoIwgrO7Y8tDVFVlJ8eul/P0mSNqKc4r8rPXcBYKY1rdYx+9OWR+UU/u3o7fs5xQMzv2BU4St1Fd8wSOEnmhTu1ppguYp/XvrfS5KkjSin+I0mbTux9OwFgJkyOvSOPrtfp/A7OcWvlR74RUtxUFfx6kGKz7/u8rNOaU2Q0U0Pc4o3F/83kiRpwwrPLT1/AWDqNal1/GApPHV0k526CnX5AT95jd79kKvwx3kpPmMSfgNxyzcllP93kSRpw0rxY6XnLwBMrUFqd3MK/+8sfJZ/gxeQG3IVduXU3lbi5zZ6AaJO4dvF/x0kSdrgRh9NLDF7AWBq3+JfLy1ccPgr+SZgkE97OcVrcooXNldsOnmjfoZ1Cj9T+u8tSVKRUvidjZq3ADDdX9dXxdfVVdxbfHjPYDmFb+Yq/Ju9Kdxn3D9LN/+TJM1tKezbyBfdAWCq1Gnh7MNfc5fCoeJDey4K9ejjAfsv3vSQcfw89+3cfIab/0mS5roUfnYcMxYAptbKUnxsruJ7HRbLlFO4Maf4+sHF7dPW8+daV+Hy0n83SZJKNvoY43rOVgCYWvWOLY+sU1h28J+MchX31ylctu/S9n3X4+Z/btgoSZr3chVvOpC2tNdncwKAKbSyY8tD6xR7Dv6T/M0B8aLRTRjv6s84p/Cs4n8PSZImoFzFV63vJgUAU+Bbads96xSq0VvOSw9jHUEp/t1KWvjJu/KzrqvYL/7nlyRpEkrxy02rdcz6b1YAMIGa1Do2p/DLvg9+WgvvHN3Q70h/3qNvF8hV/G75P7ckSZNRXornjXfbAoAJubN/ncInSg9eHeXiUsXvjt7C2OxePOHOfuYrKbyw9J9XkqQJ6y0bs3kBQAFNOu3uoxvK+Uq/2Sqn+JeDHfGcO/rZ5xQ/UPrPKUnSZBXqa1976j02bhMDgA2yktqPG31+vPyw1Tg6/KJOCtVtvRtgf9p8ek5xtfSfUZKkiSvF55TZzABgDEZf/Van+GoHwPkoV/FTo290+MHHQJ3Cr5f+c0mSNJGlsFxuSwOAdZRTe9vo7eHFh6s2epnJddV+3v95HMRriv+ZJEmaxFIcjD4iWXZjA4CjNKjiz42GWvHBqmLlFK4cpLC99J9DkqRJLqeFny69twHAUdzoL/7n0sNUk5Gv/pMk6Y7LVfjj0vsbAKzZ6LPfOYXPlB6kkiRJU5OPAQAwbfLSwhPqFL5dfIhKkiRNWXmp/ezSuxwAHJGc4oWHvwZuAgaoJEnStJWr+Eel9zkAuEPNcuu4uopvKD00JUmSprtQN1dsOrn0bgcAt6lJ4W51Fa8uPzAlSZKmv7wUn1F6vwOAf2ZvCvepq/Dh0oNSkiRpdgq7S+94APBP7E+bT89V+Gz5ISlJkjQ75RS+WnrPA4D/bZDCg+sqfr70gJQkSZrJdmx+ROl9DwBaB3aesbmuwt8WH4ySJEkz2iDF3yi98wEw5/amEOsUv1x6KEqSJM1yuYp/XnrvA2CO1WnLg+oU/rr0QJQkSZr1chUOXnf5WaeU3v8AmEMrrz79/jnFz5UehpIkSfOSrwMEYMNdn7beK6fwydJDUJIkaa5K4XdK74EAzJEmbTtx9Bm04gNQkiRpzspV+ErpXRCAOVJX8S2lh58kSdK8llN7W+l9EIA5kKv4qtJDT5IkaZ7LKfxy6Z0QgBlXV+G5OcWbSw89SZKkeS6n+Iel90IAZthgRzwnV3F/6YEnSZI07+UUv1Z6NwRgRu1Lm+5XV/FLpYedJEmSbmnvzvZC6R0RgBnTpNaxuYrvLT3kJEmS9H8apPj80nsiADOmTvHi0gNOkiRJtyrF3yu9JwIwQ3KKT8wprhYfcJIkSbpV4Yuld0UAZsS+S9v3zVX4SvnhJkmSpNtqcHH7tNI7IwAzoE7h7aWHmiRJkm6/nBZ+uvTOCMCUy1X8pdIDTZIkSXdcrsKu0nsjAFNs/8WbHlJXcW/pgSZJkqQ77S2ld0cAplTTah3jK/8kSZKmo5zi60vvjwBMqZzihaUHmSRJko60cHnp/RGAKTRI4cF1CvvKDzJJkiQdSTnF3yy9QwIwhXIV3lZ6iEmSJGkNLS38WOkdEoApk5fieTnFm4sPMUmSJB1hof5W2nbP0nskAFOk2b14Qk7xc+WHmCRJko60nMJbS++RAEyZOsVfLT3AJEmStLby0sITSu+RAEyRvSncp67CdaUHmCRJktZS+OLo65tL75IATJHRV8eUH2CSJElaSytVfEXpPRKAKbI/bd2Uq7i/9ACTJEnSkZerMBx9ffM49sPm6nPisNfZMex1/2i111m+87r91V5nz+h/Hv3fDPvd3bfU+Q/DXveyUau9xX+92u9ctNrr/Mpqv/Mzw972pxzsbz+n6T9yU7N87snj+HsAcCt1Ff9T6QEmSZKkNZbinnHshqv9zkuH/e5gtd9tNrLR/89hv/OV1V7nU6v9zp8O+923DfvdnatXdV447C0+afSiRPPB844fx98ZYC4c2BlDrsLB4gNMkiRJa2qQwvnrvRuu9rppow/+a3uRoHNo2O98abXf/cCw13nzar/7b0fvJjh41TmP8OIAwJ2oU/y90sNLkiRJaytX4R+b5dZx67kXrvY6/7L0Af+oXhzodW8cvXtg2O+8ZbXfefnwqs6Tmz2Pvv96/hsBTK0DaUvbb/8lSZKmsbC0nnthc/U59xn2O9eWPsSP510D3a+t9rrvGfY6lwz7i09r3vXI+67nvx3AVKir+Kbyw0uSJElrKVfxpr0pxPXcC1f73ZeUPqhv7IsCnS8N+90rV3vdC0cfH1jPf0uAiZMv2frAnOKB0gNMkiRJaytX4X3rvRuu9jrvKn0oL/qCQK/7j8N+9w9HL4Q0y9u3rfe/L0BRuYqp9PCSJEnSXSjF56znXjj6Cr5hr7O/9CF8khr2Ot88/A6BPYsXNG97zL3W898bYEM1u7aelKt4bfHhJUmSpLWV4vWjXW49d8PR5+JLH7gnuWGvM1ztdz662u9cdOjq7uJ6/tsDjF2u2i8qPrwkSZK05nIVX7feu+Gw13l96UP2NDXsd/922OvsOtTrPLFJrWPX++cBsK5yiteUHl6SJEm6C6WFs9d7Nxz2un9f+lA9zd8wcPjFgD2Lj2+a1jHr/bMBOCqDHfGc4oNLkiRJay/Fj633bji6A37pQ/SsNOx3vvL9FwPW++cEcJfUKfxO8eElSZKkNTf6GOd674arve4rSh+cZ7Fhr/uF1V43NXsWz1jvnxnAEflW2nbPugorpYeXJEmS1lqor7v8rFPWez9c7XU/VPqwPPP1utes9roXNm85727r/fMDuF0rKfxC+eElSZKkNZfC7673bjj6erthv3Oo+AF5Thr2ujeMPiLgXQHAhshVeF/x4SVJkqQ1t7IUH7veu+HoO+5LH4rnsWGve/Nqv/v+0b9/s7ztxPX+uQK06rTlQbkKw9LDS5IkSWsrV+Gz49gPh/3OW0ofhue9Ya/zzW3e2KsAACAASURBVGGvc0mz/OgHj+NnDMypOsVfLT28JEmSdBdK4dfWezccfX/96PBZ+gCs770Q0O8eHPa7VzbL27et988amEOjr40pPrwkSZK0pnIKN668+vT7r/dueKi//dGlD726nY8H9DrvHPa2P2W9f+bAnKgvWTg1V/Gm0gNMkiRJaytX8Y/GsR8O+52q9GFXR/DtAf3tz2+WLzhuHI8BYEblFC8sPbwkSZJ0F0oLY/lN8Gqv+8niB1wdUcNe94urV3Ve2HzwvOPH8VgAZkxdhXcWH16SJElaWyl+efRZ/fXeDZv+2Q8a9rs3lT7Yas0vBPz9aq97oXcEALerSafdPVdxf/EBJkmSpDWVU/ytceyHq73uL5Q+zOooXgjodz9/+CsEm9Yx43h8AFNskML5pYeXJEmS1lZOcXV/2rppHPvhaq+zXPoQq3Xp06MXAsbxGAGmVK7iFaUHmCRJktZYiu8ax244+hz5sNfdOwGHV61f/33YW3zSOB4vwJTJKfzP4gNMkiRJayovhWeOYzccXrX4oxNwYNVY6lzd7Fk8YxyPG2AKjL4z1tf/SZIkTVc5hW82uxdPGMd+OOx3XlP+oKpxNex3Dg17nV3N2x5zr3E8foAJVi8tXFB6gEmSJGmthcvHtR8evoHcBBxUNeYXAnrdrx/+xoAxfIsEMKFyFXaVH2CSJElaSzmFh41jN2yWF9ulD6ba4HrdTx7a0/nhcTyegAlTp/CJ0gNMkiRJayiFD41rN1ztd19S/ECqDW/Y69487HevbJYf/eBxPbaAwppdW0/KKdxYfIhJkiTpiBtU8efGtR+u9jvvLn0YVcEXAvqdfYc/FtC0jhnXYwwoZCWFc0sPMEmSJK2hFPY16bS7j2M3bJbPPXnY6+wvfQjVRPThprf9oeN4nAGF1FV8afEhJkmSpLX0hnHthsP+4tMm4OCpCWnY7xxY7XcuapYvOG5cjzlgA9VVePMEDDFJkiQdYYPU7o5rNxz2Om8ofejUBNbrfPzgVec8YlyPO2CD1FX8eOkhJkmSpCMrV+HT49wNh73u3xc/bGoiG/Y7h4a97mXN8rYTx/kYBMakabWOqauwUnqQSZIk6cjKKbx4XLvh6De8pQ+Zmoo+fbD/qB8a1+MQGJO9O9sLpYeYJEmSjqyc4oF9l7bvO67dcLXXfcUEHC41BQ37ne+u9rov800BMEUGKZxfepBJkiTpyMopXDnO3XC11/1Q6YOlpq3O+5rlRz94nI9LYJ3UaeFXSg8ySZIkHVk5xSeOay9s3vaYe40+413+QKlpa9jrfmvYWzx/XI9NYJ3kKl5RepBJkiTpSApfHN2/aVx74eqexQtKHyQ1vQ173ZuHvc6u5j1bTxrXYxQ4SnWKe8oPM0mSJN1ZuYoXjXMvHPY7by19iNQM1Ot81g0CYULlKv5V6WEmSZKkOy5XYTi4uH3auHbCJrWOHfY63yx+eNRMNOx369E7Ssb1eAXuojqFb5ceaJIkSbrTrh7nTniov/3RpQ+NmtGPBHzwvOPH+dgFjtDoM2SjV5MnYKBJkiTpDlpZaj9tnHvhsN+pSh8YNaP1uh9q+mc/aJyPX+AIXHf5WaeUHmaSJEm643KKX2uWW8eNcy9c7XU/WfygqJlt2Ot8dfQuk3E+hoE7cWDnGZtLDzRJkiTdSSnsGOdOOPrt7LDfvan0IVGz3bDf+e5qv/OCcT6WgTtQp4Wziw80SZIk3W45xZv37dx8xjh3wtVe9xdKHw41Pw373d3N7sUTxvmYBm5DXmr/SOmhJkmSpNsvV+H9494JV3ud5dKHQs1d72+WF+897sc28APqpfaTSw81SZIk3UEp/Mw498HRHdqHve7eCTgQav76XLO82B7n4xv4AYOl8NTiQ02SJEm3XYrXNyncbZz74PCqxR+dgIOg5rRhr/ONg/3F7jgf48D35KX4jOKDTZIkSbdZruLrxr0PDvud15Q+BGq+G/a79bC/ONavuQQOfwRg4YLSg02SJEm33WBHPGfc++Cw3/186QOgNOx3Vlf3dH553I93mGt1Cj9berBJkiTpNkrhE+PeBUefvy598JN+sGGvs6tJrWPH/diHuTS6qUzx4SZJkqR/1qCKPz/uXXC1331x6QOfdOuG/e6Vo5tTjvvxD3PHRwAkSZLm8+Z/I6v9zrtLH/ak26zXeWfzlvPGfg3AXMlL4ZnFB5wkSZJuVbh83Htgs3zuycNeZ3/xg550e/W67x09Tsd9LcDcWEnx6eUHnCRJkr5fruJN+3ZuPmPce+DwqsUfL37Ak+6sXufPmyvPvse4rweYC4Ol8NTSQ06SJEn/pKs3Yg8c9rs7ix/upCOp1/1ks3zu/TbiuoCZllN84gQMOUmSJH2vldR+3Ebsgau97oeKH+ykI63X+VTzjsUHbMS1ATNrsCN0Sg85SZIkfa8UP7oRO2CzvO1En//XtDXsdb/QvL1z+kZcIzCT9qUzthYfdJIkSTpcTuFfbMQOeOiqxceWPsxJd/lFgP7ZD9qI6wRmziCFB5cedJIkSRrd/C98tkmtYzdiB1ztd19c+iAnHUWfdk8AuAuaKzadXHrYSZIk6fBv/5+1UTvgsNd58wQc4qSjqPOJ5u2PO2WjrhmYGXUV6tIDT5IkaZ7LKf5l02ods1H73+iGauUPcNI6fEXgW86720ZdNzAT6ip+qfTQkyRJmudWUnz6Ru1+zfIFxw173RuLH96k9ajXeWeze/GEjbp+YOrVKXyi9NCTJEma4z6+kb/9b/YsnlH80CatZ71uv/ngecdv1DUEU61O4R0TMPgkSZLmrpzizXmp/SMbufsNe4vnFz+wSevcsN95a9Ns3AtpMLXqKuwuPfwkSZLmshSWN3r3W+13f630YU0aR8Ne57UbfT3B1MlVeGXx4SdJkjRn5Soc3Ldz8xkbvfsNe53Xlz6oSWPsxRt9TcFUGVTx50oPQEmSpLkrxVeX2P1We90/mYBDmjSWhv3O6rDf2bCbasLUySk+sfgAlCRJmqNyCl+99rWn3qPE7rfa615T+pAmjbNhv1sfvPqc7SWuL5h4B9KWdukhKEmSNE/lpfDMUrvfsNf5RukDmjTuhr3u15urH7W51HUGE6tJrWPrFAelB6EkSdI8lFN8T7G9r2kdM3qLdOnDmbQh9bp/1bz9caeUut5gYuUUryk9DCVJkma+FAf7UntLqZ2vedtj7lX8UCZtZL3ue5sPnnd8qWsOJlKuwn8pPhAlSZJmvbTwKyV3vtFboosfyKQNbtjvvLHkdQcTJ6f4m8UHoiRJ0mz38dFHL0vufAevXnxk6cOYVKQ93V8qee3BRFlZaj9tAoaiJEnSTJZTPJBTeFjpne/QVYuPLX4Qkwo07HVvPNTf/ujS1yBMhL0pxNKDUZIkaYZ7aWsCHLpq++NKH8SkUg17na82y9sfWPo6hOKaVuuYugr1BAxHSZKkmSqn8GejXas1AQ5d1X1C6UOYVLRe58+b5QuOK30tQnG5Cv+j9ICUJEmaqVK84cDOMybmu8gP7dl+XvEDmFS4Yb9zaelrETbMDZdtuff+tHVT3hEevn9p4dF1WnhKXmo/u07xo8WHpCRJ0oyUU7w5p/AvWhPkUG/xR0ofvqTSDXvdm4f97T9d+nqEo5Iv2frAfWnhMXkpPmP0FTN1FS8Zfb1frsL76yp+vq7i3tKDUJIkaV7KVXxda8IcvOpRndKHL2kSGvY6uVnevq30NQl3qEmt4/el9pbRb+3rKr6srsLu0QE/V/Ha0kNOkiRJt5RT+GSTtp3YmjDNnrPPLH3wkiaozzXvWLx76esSDmuWW8fVacsPrVThBXWKbxx9Rj+ncKj0QJMkSdId9p0DO2NoTaBm+ZyHTMChS5qYhv3OG0tfl8ypfWnT/fJSeGZO8bfrKnzYXfklSZKmq5zi6iCFn2hNqOY9W08aff659KFLmqSG/c7TS1+bzIEmnXb3w2/lT+Gy0Q34chWGpYeWJEmS7norVXxFa8INe90bSh+4pElq2O9+u+kvnlb62mQGDXbEc3IVX1Wn8JFchYOlh5QkSZLWp5ziHzat1jGtCTfsdb9Q+sAlTV6d9zXN5F+/TMHn+PPSwhNyFa+oU/xy6cEkSZKk9S+neM3o3Z2tKbDa776//GFLmsQ6Ly19fTKFmt2LJwxSOL+uwpvrFL5deiBJkiRpfOUqfGVwcXtq3j487HXfVP6gJU1ew173xoNXdc4ufY0yJeodmx8x+jx/TuGbpQeRJEmSNqAUcp0WpurAsNrr/Hrpg5Y0wX2uWT735NLXKRNq9GpvXcWX5Sp+qvgAkiRJ0oY1+nrmQYo/3poyw/7i0ybgkCVNbMN+57dLX6dMkCa1jl1JCz+ZU3zP6KteSg8fSZIkbWy5ijfVVft5rSnUXP2ozaUPWNIkN+x3bzq0p/PDpa9VCrs+bb1XTvHCOsUvlB46kiRJKlNO8eZcxX/VmmLDXucbpQ9Z0kTX63xmdG+30tcqBazs2PLQXIVddRXq0gNHkiRJZVup4itaU26113ln8QOWNOn1Oq8sfa2ygfJSPC9X4X2jV3lLDxpJkiSVL1fxVa0ZsNrr/Fbxw5U04Q37ne82y486q/T1ypjltOXxOcUPlB4wkiRJmpxyFV/XmhGHrtr+uNKHK2kq6nU/NroHXOlrlnXWtFrHrCwt/FSdwidKDxdJkiRNXG8Y7YutGdF88Lzjh/3OvuKHK2ka2tP55dLXLOsoL4Vn5ip8egIGiyRJkiavt8zibwBXe923Fz9YSVPQsN/Z1yyf85DS1yxHaV9aeExdhQ9PwFCRJEnSBJZTfP0sHv5HVvudF5Q+WElTU6/79tLXLHfRSlo4s05h2c39JEmSdLulcFlrhjVXn3OfYb97sPjBSpqShnu2P7X0dcsarLz69PuPnshzCjcWHyiSJEmayG75JVF4eWsOrPa67y19qJKmpWG/87+a3YsnlL5uuRNNah1fV/FldRVWSg8USZIkTW45hUN1Cj/bmhOr/e7zSh+qpKmq131Z6euWO7B/R3sxp/DJ0sNEkiRJk12u4v5BCue35kjznq0nDXud64ofqqQpadjr7m3esfiA0tcut7Lv0vZ9cxV25SreVHqYSJIkaeLbm9OWx7fm0LDXeV3pQ5U0TQ37nTeWvm75ntH3s+aq/aK6CtdNwCCRJEnSxBe+mFN4WGtONXvOPnPY795U+lAlTUvDfmf14FWds0tfu3NvcHH7tDrFd5UfIpIkSZqGcgp/OnrnaGvOrfa7vdKHKmm66vxF6et2rtVLCxfUKd5QeohIkiRpOhp9XLRZbh1Xeo+dBAevPmf7sNe9ufyhSpqehns6zyp97c6d+pKFU+sqXl16gEiSJGk6ylX87qCKP196j500q/3Ou0sfqKRpatjr/J2vBdzo3/r7rL8kSZKOsJzi1/YvLTy69B47iZo9nYcPe51h6UOVNFX1uheWvnZn3rWvPfUeOYW3lh4gkiRJmqJS+Mjo3aOld9lJNux3/1PxA5U0RQ173a83y+eeXPranVmjO7TmFD5TfIBIkiRpKspVGNYpXOatuneueXvn9GGvs1L6UCVNV4u/WvranUmDFJ9fpzgoPUQkSZI0HeUU/iEvLTyh9B47TVb73ZeUP1BJ09Ow37m2ecfi3UtfuzOjuWLTyXUKv1t6gEiSJGmKSmF5bwr3Kb3LTpsmtY5d7XX+W+lDlTRV9bqvKH3tzoSVHfGsOsUvFB8gkiRJmpb21lX8l6X32Km/IWC/c6D4oUrqT0fDXue6/7+9u/Gy5KwLPH6H8JaAqwEkECZT1UN4MWyYrrqJBOEY4cBZWIwomLMrKCK7cJTDEl0Wo57gUz0BieLIGeEgI6so68vaU9UJSUAFEXWj8uKCB4lGJCwIJiHEZLpu52WmKqk9tyeJM9M9YWbS9z739v18zvn+BTP1u/V7+t6q7orv+pbY1+5UGyzMvXAQ0lsn4ENEkiRJ01BI/2pf2LY99n3sZtCW2RtiL1VSO1X13xL7up1agyK9aPWBLbE/RCRJkjT5hWTfIMy9Yfj19dj3sZtF1/W2tGX+4fhLlZRPRU2Z39Zdffapsa/dqdKF3kPrkL47+oeIJEmSpqTkqjsuffIZse9jN6Nu6dzHNlV2fezFSmqnpTL/+djX7dRY/oXTH1uH9E/jf4hIkiRp4gvpF1dC8qLY97Az8TwArwaUumOpqfKbu8XzTo593U68feHJZw6HePQPEkmSJE10dUjuGoRkZxeSR8a+h50VzVL+vU2ZNbGXK6mdhpayH499zU60lbAtr0NyU+wPE0mSJE12dZF+bPiWqNj3r7OorfJXNlV+d/TlSqomu+HPZrrFC0+Kfc1OpEFIvmf1oS0T8IEiSZKkCS0k1w0W5i6Mfe8669oqf31T5vfEXrCkdsJrlrKXxb5eJ04dku+vi/TO6B8okiRJmtCSbwzfDjV8UHTse1cO+SaAnwNI3QNWZp+Mfa1OlLpIfqIOaRv/Q0WSJEkTV0hvqYv04hvfcdqjYt+3slZTZi9vquyO6EuWVE1uB8r+c2JfqxOhDulPR/9QkSRJ0uQV0lvrkF7yjV982rfEvmflge3fe07WVNlXYi9ZUjuplfkVvVm3XKRvjv7BIkmSpImqDukNw7/433rZ9m+Nfb/KseuuyE5vq/wvoy9aUjV5DR+a2S2eM7sPLR2E5L/H/nCRJEnSBHXwNdAXdbu2em/2lOo+fv5DmypbaKqsjb1wSe2E1VT5u3qzyPIvSZKkYXVI76mL5KPDp/p3iz2vytokhr93bqrsH2IvXFI7QTVlflt3Zf+U3ixZCen/iP1BI0mSpOj9a12k71zeuf0pse9PGY1uT/9hbZVd3FTZnbEXL6mdlMr81b1ZMQjpGyfgw0aSJEkRGr71qS7SD63+tX/3mY+IfW/KeHTlOdubKvvd4W+goy9fUhW5Mv+r3iwYhOQVdZHeHfuDR5IkSeP9iv8gJJ8YFMlP3R7OOD32PSnx7L98x3xb5h90EKBZb//l/bN7m9lKSF5Uh+RA7A8gSZIkjb57/+jz18M3Pt0WkjT2vSiTpSv7T2/K7H1+GqBZrSnzX+1tVsshOW8Q0pXYH0SSJEkaYSHZNwjJ4kqR/uggbH987HtQJl+32P/Wtsxf11bZNbEXMqkdY5v2YYDDh7rURfL16B9IkiRJ2thCurL69P6QFIMw94LhA99i33syvfbv3fGMtswuacvs/8ZezqR2HO3t/2hvM7k9nLm1Dsk/R/9wkiRJ0oOqLtI765D+zaBIf205JK8Z7Nx+tlf2MSrd4o4ntWX2I02Z/2ZTZddHX9SkahRl1/Q2ixvfcdqj6pB+JvaHlSRJko6tOiR3DULyhTqkfzII6W/WRfKzdUi+f1948pmWfWLqrj771KbKn9+W/TcNnx3QVtmfNlX+ZQ8TVDvlDZ+H0Zt2Xa+3ZVAke2N/iEmSJI1+YU5vPaJbBkV6/ZHVRfrZ4V/QD21QJP9n+BX6wwrJHw1/R7+mInnfoEj2HFpdpO8chOSywyqSS+sivXhNIX3doQ3/il8vpC+tF7Y9pw7J0+u3nfntse8h4Xh1ixee1H3wWacNfz5woMy+u1maf3G71L9wtb3Za9oyv6it+m9pquyXVw8OymyxrfKPtmX+qabM/7Eps5s8iFBtxJoqK3rTblAkC7E/kCVJ0vF/xXudZfbWOqQ3rLPQXrtmmQ3pNUcus4MiuWq9ZbYOyQfWLrPJ7jXLbEiK9ZbZQZFedORCuxLSVw3fLX9oywtzFwx/m35kddj+3Nt3busf2mDnGc/YF7ZtP7ThK+v2vX3bqYfWheSRse+1gI3XLZ53cndFdvrqYcJS/7lNmV3QVvOvOniIkF08XNSaMtvdVPkH2jK7avj17abKr23K7AaHCGpPsKbKrutNs3ph28tX3/U6ATcykqTZa70l9lgX2ONZYo9jgV13iT3WBfZoS+yxLrBHXWJ9nRtgrIcIBw8Q8suOeohQ5nfFXkaVR2n/3nOy3jRa2ZlkXvcnSWNbYKf6r7DrLbD+CgtAb9YPEK4++9QHPkRYPUDYs/43EfL9sZdZ5cddU+W/2Js2w3e91kXy1dg3zpLiVYf0jjVfHy6Sb6z7W9iQfmbt4pr8xdrfwqYfPspvYfes81vYXev8FnbhyKV1uUjffOTSOmxQJD90TF8fXkiet97iOnxI1pGL60pInnDk4vr1cNajY89sAGBzfwuhK8/Z/k0OEYYHCIvr/JzhQOyFeNZqyuyfu663pTctutB7SF0kfxx7+ZC08Q3/8lwX6VtW/zIbtj/e14cBADa37vId3zY8PGjL/ivaMvtY7AV5FjqwlD27Ny2Gy0HsJUXSCArpe/y1GgBgtrVV9p+bKl+JvSRv5poy292bBsOvwtYhbaMvKpI2uotizxcAACZDszT/0thL8mauqbIbh6+17E2y4W9b6yK9cQIWFUkbWrIQe74AADBZmir/vdiLcruJa6r8+b1JNfz9b12kH4u/qEja0ELyF8PnesSeMQAATJbh79RjL8ntJq4ps3f2JlUd0kuiLyqSNrQ6pPeshGQ+9nwBAGAyNVX2ldiLcrtJa6r8C71JNFwQ6iLZH3tZkbSxDd/mEXu+AAAwudoyr2Ivyu0mrivnn9KbJN3uMx9Rh+RzsRcVSSMopG+NPWMAAJhcTZXvir0kt5u5Mp+sB3EPiuQXoy8pkkZSHdJfiT1jAACYXE2Z7Yy+JFebuWxyvpG7vJA82yv/pE1cSN4be84AADC52rL/M/GX5HzT1pT5Xd3iWY+O/e/c68ITTxmE5AvRFxRJI6su0t+PPWsAAJhcbZX/XOwlud3kNVX2fbH/nXt1keyOvZxIGm11kfxd7FkDAMBk6rrelrbKPx97QW43eU2Zx/1W7u07t/V99V/a/K1e52H746MOHAAAJlK7N/vh2MtxOwM1Zf7V4WFLlH/kLvQeMgjJJ2IvJpLGVfKmKMMGAICJ1S2e+4SmzG6KvRy3M9L+vTueEeUfehDm3hB/IZE0tkJys28BAABwn+7K/iltlV0Teymeqcr+T4z9H3rlrdueOAjJvugLiaTxFtKru11bTx770AEAYKJ0V/Yf11bZx6MvxDNWU+W/N/Z/7OETwaMvIpKiVIfkUythWz72wQMAQHTD36A31fwPNmX2z7GX4Vl9DkBvnAYLcy+MvYBImoSSTw6KZE8d0kvqIr34vgYhfWMd0tcd2nJIXjNYmLtwnV44CHMvOLTlheTZwweMHtpg5/az94Vt2w/ttku3ze17+7ZTj6wLvYeOdSgCAGwC3Z7+w7qlcx/bleds31/186bsP69Zmn9pW2Y/0pbZG9qq/5amzH69qfIvx16CZ71u8Zlz4/lPsdg7afg6sPiLhySdWHWR3jkI6a2HVof0hkGRXn9E19Yh/ZsjG4T0mrpIPnpogyK5ahCSxUOrQ/KB4QHJoa2+NjUkl61TceghyupBSpFedORBykpIX7XeQcrywtwFRx6k1GH7c9cepJzxjCMPUobdHs44fc1BymLvpLF8sAAAD1q3eN7J3dVnn9pdkZ0+fEjcgaX+c5syu6Ct5l/VlvlFbZVd3FRZ0ZTZ7qbKP9CW2VXD3+43VX5tU2Y3NGV+a1Pm98RebJUfW2X2I2P5j1UX6Wtj37xLkib+8GTdA5RjPTw5zgOUNYcnx3OAcqyHJ0c7QFn38GT3mY8Yy4cyAJtneb9vcb887x+5vB+yuO85yvJ+V/SFVN04G34TY+T/MW98x2mPuvdGL/pNqCRJs/Ttk/UOT6b92yfrHZ7c+zOeh4z8pgZgFMv7fYv7Uv/CdZb3+xf3tsz/5t+W96yJvUwqn7qaKvuHkf/nHt4kxL55kiRJs9e0fPtkvcOTsX77JJz18JHfEMKMfGX+4OKeX+Yr82onsOH/va565uhez70SkicMimQQ+wZAkiRJx1BIV9YemiQ3rTkwCekXjzwoGYS0HIT0PYOQ7KxD8vqVkLxoOcw91QEDk2z4SrrVB9dV+Q/cu8D/wvBr0m2ZV6uvqivzzzZVdv3q4l7ld8de4KT2QdYsZS8b2QV18AR8Aj7MJEmSFKW6SJrhw6DrIvnt4bcd9oW57/TmFcat++CzTmvK/n9sy/zNTZn/Zltmn2zKrI69jEntmGvK7B0juciGJ751SNvYHzqSJEmasEJSD0J69fBA4I5L02QkN6PMrO7j5z/0QJWf15b9N7Vltuj1c1J+aB8dyYV37ylv/A8YSZIkTXSrPyco0ouHzygYyY0pm1rX9bbs33tO1pbZT7dl/mF/2Zfyo9ZU+c0bfhHuu/SMJw+/7hX7w0SSJEnT08FvjyZXDR926M0OPJDuyv4pTZV9372vuPta7KVKaqeobnHHkzb0ghwU6W/E/gCRJEnSFBfSLw5/ItDt2nryht6oMrW695//yOET94dP1/dXfik/4Zqq/5INuzDvCNu31UWyP/qHhiRJkqa+uki+OnwtYrfYO2nDbliZGsNvgjRV/nxLv5RvZD+3YRepJ/9LkiRpo6tD+vnBwtwLN+ymlYnWlVnSlnloqvxLE7AsSd2mqswWN+RC9dd/SZIkjbI6pL8zeNvcaRty88pEGT7MrynnX7D65P4ya6IvSVK1OWvK/B835KKti3RX7A8FSZIkbfr+tQ5zP7ghN7BE1y2e9ei26r9xuJTEXoykdgZqqvzu4XX3oC7cr4ezHj0Iyb4J+ECQJEnSLBTS/3njO0571IZtooxVtzj/7U2VFU2Z3RJ7IZLaGevA3vnvelAX8CDMvSH6h4AkSZJmqjokn7vt0m1zG7aVMnJddfbWpsze3VTZHbGXIKmd1Zby1574RdzrbRkUyT/G/gCQJEnSLJZ8o15Iz9/QLZUN11XPfHxT5pdZ/KU8esNr8YQv5uWFbS+JP/glSZI0qw0fRO25AJOpu7L/uKbM3mnxl/LJqcz3nvBFXYfkI7GHviRJkma7OqTtckhes6HbKyesteU+FwAAEb9JREFUWzzr4W2ZX9SU+W3Rlx1J3eFlnzmhC7vemXxHHdJ7Yg98SZIkaXhfuhLSV234Nstxvc6vrfJXNlX2lfhLjqR2nZoyWz6hC7wO6a/EHvSSJEnSod8E8HOAOLpy/iltmX0k9nIjKf+mDX+ec3wX+J7+w+oi+XrsIS9JkiQdWl2kdy6HbQ/uNVccs27xvJMPvtIvvyv2UiMpP6YOLPW/87gu9Hoh+YHYw12SJElarzokN90eztw6sq2XVU3Zf15TZdfFXmYk5cfX3vkfOq6LfVAkH4w92CVJkqSjVYfkU93uMx8xsu13hnVV/4lNlX8g+hIjqTuhyuySY77gB2+bO60OyYHYQ12SJEl6oOoi3TXSTXgWH/JX9n9i+BCx6AuMpO5Ea6rs/cd84S8X6ZtjD3NJkiTpmN4MsJC8eKRb8Yzoqmc+vi2zq2IvLpLyB1+Z/9kxX/yDIr029jCXJEmSjqW6SL56Szjz3410O97kmqr/wqbM/yX60iKp24iaMv/7Y7r4V3amO2IPcUmSJOl4qkP67pFvyZtQ9/7zH9mU+WVNld8de2GRlG9YTZndckxDYBCSnbEHuCRJknQ81UV6d72w7Tkj35g3kW5x/qy2zD8be1GRlG94TZnf0+3pP+ybDoI6pJ+PPcAlSZKk460Oyd92ofeQsWzP0/6gv6r/xqbK7oy9pEjKR9bwbR4POAyWd6ZPiz24JUmSpBNtOSSvHtsmPb1f+f/t2IuJpHzk7a/mdzzgQKhDeknsoS1JkiSdaHVIv9aFJ54yto16inTV2VvbMv9U7KVEUj6WmnL+BQ84FOqQfib20JYkSZIeXMmbxrZVT4kDZf85TZndFHshkZSPr7L/iqMOhdsu3TYXf1hLkiRJD666SG/sQvLIsW7YE6wt89c1Vb4/+jIiqRtzP3nUwTAo0otiD2tJkiRpI6qL9LW9Gdd9/PyHNmX+qxOwhEiqxl9TZm876oCoi/RDsQe1JEmStCGF5Lqu19vSm1Hdlf3HtVV2TewFRFIerabM3rf+gAhnPXxQJIPog1qSJEnaqELyPb0Z1F2Rnd6W2ediLx+S8qg1Vf576w6JQdj2/OgDWpIkSdrA6iL93d6M6cr+05sq+0rsxUNSHr8yv2LdQTEo0rfHHtCSJEnSRlaH5K59YetjejPiwOV5v6nym6MvHZK6ySj743WHhdf/SZIkaTO2XCQ/1psBB5bmz2/KbDn+wiGpnZiyv1gzLOrw1MfVRXp37OEsSZIkbXTDB133NrmmzC5oquyO+MuGpHay+vSagTEo0v8UezBLkiRJo6gukv23heTbeptUW2U/1lRZOwGLhqRqsmqq/No1Q6MOya/GHsySJEnSqKoXtr28twm11fyrmiq/O/aSISmfyJoq/9KawVEXyadjD2VJkiRpZIX0Pb1NplnKXtaUWRN7wZCUT2xNld142ODodm09efi1qOhDWZIkSRpZyT/1NpGmzP9DU+Z3xV4uJOUTXVNl+w4bHnXY/tz4A1mSJEkabbe/deuTeptAU+XPb6rsztiLhaR84muqfP9hA2S5SN8cexhLkiRJo65eSF/am3IHyv5zmipfib1USMqnouEzQg4bIoOQLsUexpIkSdLIC+lbe1Ns/+U75psyvzX2QiEpn5qG3xY6bJDURfov0YexJEmSNOLqkPxRb0p1Zf/pTZndEnuZkJRPVU2Z1fcPkpWQPCH2IJYkSZLGUR2SL/emULd43mOaKv9C7EVCUj51DQ8O7x8mgzD3gtiDWJIkSRpHdZHePXwDVm+KdHv6D2vL7GOxlwhJ+VTWlNkN9w+UQUh+MvYgliRJksZW2P7ve1OkKfNfi71ASMqntqbKvnL/QBkUyfuiD2FJkiRpTC2H9Pt6U6Ktsp+KvTxIyqe6psr/6f6hMgjJJ2IPYUmSJGlc1UX62t4UaJbmX9xUWRt7eZCUT3ufXx0qXa+3ZRCSOvYQliRJksZVHdJLehOuW8q+oynz2yZgcZBUTXvZNauD5baQpLEHsCRJkjTO6iJ5V2/in/ifXR9/aZDUbobK/MOrw2V5YdtLYg9gSZIkaZzVIflAb0J1XW9LW+ZXRF8YJHWbpabMfmd1wAzC3BtiD2BJkiRprIW07E2otuz/TOxlQVK+qWrK7N2rA6YukndEH8CSJEnSGKtDevDrsBPmwFL27KbKDsReFiTlm6qmyt+6OmTqIvmD2ANYkiRJGmsh+bPehOmWzn1sU+b/EntRkJRvvsr8zauDZlAkn4w+gCVJkqQxVhfpx3sTpi3zvdGXBEndpmwpP/jq0zokN8UewJIkSdI4q4v0Y70J0lbZj0VfECR1m7WmzC7odbu2nlyH9J7YA1iSJEkaZ3VIPtKbEN3iM+eaMluOvSBIyjdtBy7P+73lnenTYg9fSZIkadzVRfqh3qS88q/KPxp7OZCUb+q6qv/E3mAheV7s4StJkiSNu7pIf783Adql7MdjLwaS8k1dU2Vtt3jhSb3BwtyFsYevJEmSNP6SPbGX/+6K7PSmzG+LvRxIyjd1TZV/bXXo1CH58fjDV5IkSRpzIfml2AcAbZldHXsxkJTPQp++7wDg56IPX0mSJGnM1SH5mZjLf7OUvWwClgJJ1QxU5h88eABQpLtiD19JkiRp7IW5H461/HdX9k9pyvz/RV8KJHWzUFNmuw8eAITkt6IPX0mSJGncLSTPi3UA0FTZL8ReCCTls1OZX7Q6fAZFclX04StJkiSNueWd258SY/nvlp751KbK90dfCCR1s1KzlH/vvQcA6V/GHr6SJEnSOKuL9O5u19aTYxwADH+LG3sZkJTPVN1S9h2rA6gOyediD2BJkiRpnNUh+XKM5f/A0vz5sRcBSflM1ZT5Pd3ieQcPPAchuS72AJYkSZLGWR2Sj4x7+e+63pbhq7hiLwOS8pmqKfOv3j+IBiH9UuwBLEmSJI2zukjeNe4DgLbKXxl7EZCUz2J/fv8gqkP6tdgDWJIkSRpndUheP87lv1u88KSmyq6bgEVAUjVbNWX+3vuH0SAkN8cewJIkSdI4W15InzXOA4B2b/aa2EuApHxGy/7boQcA+2IPYEmSJGlc1SFtu/DEU8a1/Hd7+g9rquz6+EuApHYGa6r8+fcPpLpI74w9hCVJkqRxNXwLVm+M2qr/X2MvAJJmt+6Dzzrt3w4AQtrGHsKSJEnSGHv/uJb/LvQe0pT538deACTNZk2ZfeOwoVQXSTMBQ1iSJEkaS8shec24DgCaMnt57AVA0iyX/elhQ2kQ0pXYQ1iSJEkaV8th7qnjOgBoy/yv4i8Akma1psoPf+XpIKS3xB7CkiRJ0lgKyc1dr7dlHMv/gaX+c2Pf/Eua8cr5/3LYYKpD+rXog1iSJEkaT1VvTJoq+4PoN/+SZrr91fyOwwbToEivn4BBLEmSJI2+kL5xHMt/t3juE5oqOxD75l/S7NZU2Z3D15AeeQBwbfRBLEmSJI2hlZDMj+MAoC2zS2Lf/Eua9bJPrBlOgyL969iDWJIkSRp5IdnXLfZOGvXy3y1eeFJTZV+Jf/MvaZZrquw9awZUXaQfij6MJUmSpFEXkit7Y9BU2Yti3/hLUrs3W/vK07pI/lf0YSxJkiSNvORN4zkAyP939Bt/STPf/st3rP3JU10ku+MPY0mSJGm03b4wd+6ol/9usf+tTZXdEfvGX9Js11T5Svfx8x+6ZkgNQlLEHsaSJEnSaEsGXeitvRneYG2Vvz72jb8ktVX+J+sOqeGrUOIPZEmSJGl01UX6h6Ne/u89APj0BNz4S5rxmjLbeZQDgLkfjj2QJUmSpFFWF8nPjnr53793xzNi3/RLUjs8AFiaf/G6g2p5YdtLYg9kSZIkaZQth23fNeoDgKbKfjn2Tb8kNWV+T7d43mOOcgCQPDv2QJYkSZJGVV2kt3fhrIePcvkfPmyrqbIbY9/4S1JbZn931GG1vDN9WuyhLEmSJI2qOqTrPwxrAzVldkH0m35JqlZ////rRx1Wg7D98bGHsiRJkjSq6pD+/KgPANoyW4p90y9J7bCy/4qjDqtu95mPiD2UJUmSpJEVku8Z5fLfLZ372KbM74p+0y9JVd51izue9IBDqy7Su6MPZkmSJGmDq0NyV7dr68mjPABoq/wnY9/wS1I7/Pp/lX/hmw6tOqR3xB7OkiRJ0saX/Pkol//VA4Ay/2zsm35Jar/Z7//vMwjprfGHsyRJkrTRJZeOcvnfv/ecLPYNvyS1/9Yrv+ngqkN6Q/zhLEmSJG1wYe4FozwAaMps9wTc8EtSd0y//x8ahPRL0YezJEmStJGFZF8XkkeOavnvut6WpsxuiH3DL0ntwd//33xMw6su0s9GH9CSJEnSRhaS945q+V89APjwmY+IfcMvSe19lfkfHusBwO9HH9CSJEnSRhWS+vZwxum9EWuq7LroN/2SVA2/AZC96JgG12Bh7oXRh7QkSZK0Aa2+4nph7sLeGLRl/urYN/2S1FT5ruMaXoMi/Y3Yw1qSJEl6MNUhuWs5JK/ujVFT5pc1ZX5P7AVA0uzVVPmgLfOLjntwdYu9k+qQ/srqiekEDG9JkiTp+Eo+efvC3Lm9CA6U2Xc3ZfY7bZV9pqmy6yWpGVFtmf9tW2ZLbdV/Y7d43mMe1PBa2ZnuGBTJnkFIv1iHtI0/yCVJkqS1rd6rhvRLdUh+a/i6v67X27JhGz3ArOlC7yH73r7tVEmSJGnSsvADAAAAAAAAAAAAAAAAAAAAAAAAAAAAAAAAAAAAAAAAAAAAAAAAAAAAAAAAAAAAAAAAAAAAAAAAAAAAAAAAAAAAAAAAAAAAAAAAAAAAAAAAAAAAAAAAAAAAAAAAAAAAAAAAAAAAAAAAAAAAAAAAAAAAAAAAAAAAAAAAAAAAAAAAAAAAAAAAAAAAAAAAAAAAAAAAAAAAAAAAAAAAAAAAAAAAAAAAAAAAAAAAAAAAAAAAAAAAAAAAAAAAAAAAAAAAAAAAAAAAAAAAAAAAAAAAAAAAAAAAAAAAAAAAAAAAAAAAAAAAAAAAAAAAAAAAAAAAAAAAAAAAAAAAAAAAAAAAAAAAAAAAAAAAAAAAAAAAAAAAAAAAAAAAAAAAAAAAAAAAAAAAAAAAAAAAAAAAAAAAAAAAAAAAAAAAAAAAAAAAAAAAAAAAAAAAAAAAAAAAAAAAAAAAAAAAAAAAAAAAAAAAAAAAAAAAAAAAAAAAAAAAAAAAAAAAAAAAAAAAAAAAAAAAAAAAAAAAAAAAAAAAAAAAAAAAAAAAAAAAAAAAAAAAAAAAAAAAAAAAAAAAAAAAAAAAAAAAAAAAAAAAAAAAAAAAAAAAAAAAAAAAAAAAAAAAAAAAAAAAAAAAAAAAAAAAAAAAAAAAAAAAAAAAAAAAAAAAAAAAAAAAAAAAAAAAAAAAAAAAAAAAAAAAAAAAAAAAAAAAAAAAAAAAAAAAAAAAAAAAAAAAAAAAAAAAAAAAAAAAAAAAAAAAAAAAAAAAAAAAAAAAAAAAAAAAAAAAAAAAAAAAAAAAAAAAAAAAAAAAAAAAAAAAAAAAAAAAAAAAAAAAAAAAAAAAAAAAAAAAAAAAAAAAAAAAAAAAAAAAAAAAAAAAAAAAAAAAAAAAAAAAAAAAAAAAAAAAAAAAAAAAAAAAAAAAAAAAAAAAAAAAAAAAAAAAAAAAAAAAAAAAAAAAAAAAAAAAAAAAAAAAAAAAAAAAAAAAAAAAAAAAAAAAAAAAAAAAAAAAAAAAAAAAAAAAAAAAAAAAAAAAAAAAAAAAAAAAAAAAAAAAAAAAAAAAAAAAAAAAAAAAAAAAAAAAAAAAAAAAAAAAAAAAAAAAAAAAAAAAAAAAAAAAAAAAAAAAAAAAAAAAAAAAAAAAAAAAAAAAAAAAAAAAAAAAAAAAAAAAAAAAAAAAAAAAAAAAAAAAAAAAAAAAAAAAAAAAAAAAAAAAAAAAAAAAAAAAAAAAAAAAAAAAAAAAAAAAAAAAAAAAAAAAAAAAAAAAAAAAAAAAAAAAAAAAAAAAAAAAAAAAAAAAAAAAAAAAAAAAAAAAAAAAAAAAAAAAAAAAAAAAAAAAAAAAAAAAAAAAAAAAAAAAANCbHP8f0tUO2xIs57sAAAAASUVORK5CYII=;" parent="1" vertex="1">
          <mxGeometry x="190" y="172.4" width="94" height="94" as="geometry" />
        </mxCell>
        <mxCell id="hUaz1e9rTDMCQRMf4-1v-15" value="" style="edgeStyle=orthogonalEdgeStyle;fontSize=12;html=1;endArrow=blockThin;endFill=1;rounded=0;strokeWidth=2;endSize=4;startSize=4;dashed=0;strokeColor=#4284F3;entryX=0;entryY=0.5;entryDx=0;entryDy=0;" parent="1" source="hUaz1e9rTDMCQRMf4-1v-6" target="hUaz1e9rTDMCQRMf4-1v-7" edge="1">
          <mxGeometry width="100" relative="1" as="geometry">
            <mxPoint x="480" y="345" as="sourcePoint" />
            <mxPoint x="530" y="345" as="targetPoint" />
          </mxGeometry>
        </mxCell>
        <mxCell id="hUaz1e9rTDMCQRMf4-1v-16" value="" style="dashed=0;outlineConnect=0;html=1;align=center;labelPosition=center;verticalLabelPosition=bottom;verticalAlign=top;shape=mxgraph.webicons.github;gradientColor=#DFDEDE" parent="1" vertex="1">
          <mxGeometry x="910" y="-77.8" width="102.4" height="102.4" as="geometry" />
        </mxCell>
        <mxCell id="hUaz1e9rTDMCQRMf4-1v-17" value="" style="edgeStyle=orthogonalEdgeStyle;fontSize=12;html=1;endArrow=blockThin;endFill=1;rounded=0;strokeWidth=2;endSize=4;startSize=4;dashed=0;strokeColor=#4284F3;entryX=0.5;entryY=0;entryDx=0;entryDy=0;" parent="1" target="p3YF90jsD_BG99ifKCer-6" edge="1">
          <mxGeometry width="100" relative="1" as="geometry">
            <mxPoint x="790" y="-27" as="sourcePoint" />
            <mxPoint x="630" y="320" as="targetPoint" />
          </mxGeometry>
        </mxCell>
        <mxCell id="hUaz1e9rTDMCQRMf4-1v-19" value="" style="sketch=0;outlineConnect=0;fontColor=#232F3E;gradientColor=none;fillColor=#232F3D;strokeColor=none;dashed=0;verticalLabelPosition=bottom;verticalAlign=top;align=center;html=1;fontSize=12;fontStyle=0;aspect=fixed;pointerEvents=1;shape=mxgraph.aws4.user;" parent="1" vertex="1">
          <mxGeometry x="1080" y="-65.6" width="78" height="78" as="geometry" />
        </mxCell>
        <mxCell id="hUaz1e9rTDMCQRMf4-1v-20" value="" style="edgeStyle=orthogonalEdgeStyle;fontSize=12;html=1;endArrow=blockThin;endFill=1;rounded=0;strokeWidth=2;endSize=4;startSize=4;dashed=0;strokeColor=#4284F3;entryX=0.977;entryY=0.555;entryDx=0;entryDy=0;entryPerimeter=0;" parent="1" source="FnGhsBaEoGvBgOBj6ldF-43" target="ESuRtYD4fdTtWtTvrHna-1" edge="1">
          <mxGeometry width="100" relative="1" as="geometry">
            <mxPoint x="900" y="101" as="sourcePoint" />
            <mxPoint x="990" y="91" as="targetPoint" />
          </mxGeometry>
        </mxCell>
        <mxCell id="hUaz1e9rTDMCQRMf4-1v-21" value="" style="shape=image;verticalLabelPosition=bottom;labelBackgroundColor=default;verticalAlign=top;aspect=fixed;imageAspect=0;image=data:image/svg+xml,PHN2ZyB4bWxucz0iaHR0cDovL3d3dy53My5vcmcvMjAwMC9zdmciIGhlaWdodD0iNDhweCIgd2lkdGg9IjQ4cHgiIHZpZXdCb3g9IjAgMCA0OCA0OCI+PHBvbHlnb24gcG9pbnRzPSIxNywyMyA1LDE2IDUsMiAxNyw5IiBmaWxsPSIjNjA0MmVhIi8+PHBvbHlnb24gcG9pbnRzPSIzMSwzMSAxOSwyNCAxOSwxMCAzMSwxNyIgZmlsbD0iIzYwNDJlYSIvPjxwb2x5Z29uIHBvaW50cz0iMzMsMzEgNDUsMjQgNDUsMTAgMzMsMTciIGZpbGw9IiM0MDQwYjIiLz48cG9seWdvbiBwb2ludHM9IjMxLDQ3IDE5LDQwIDE5LDI2IDMxLDMzIiBmaWxsPSIjNjA0MmVhIi8+PC9zdmc+;" parent="1" vertex="1">
          <mxGeometry x="926.8" y="130" width="48" height="48" as="geometry" />
        </mxCell>
        <mxCell id="hUaz1e9rTDMCQRMf4-1v-23" value="" style="edgeStyle=orthogonalEdgeStyle;fontSize=12;html=1;endArrow=blockThin;endFill=1;rounded=0;strokeWidth=2;endSize=4;startSize=4;dashed=0;strokeColor=#4284F3;" parent="1" source="hUaz1e9rTDMCQRMf4-1v-19" target="hUaz1e9rTDMCQRMf4-1v-16" edge="1">
          <mxGeometry width="100" relative="1" as="geometry">
            <mxPoint x="1070" y="-30" as="sourcePoint" />
            <mxPoint x="1060" y="-30" as="targetPoint" />
            <Array as="points" />
          </mxGeometry>
        </mxCell>
        <mxCell id="hUaz1e9rTDMCQRMf4-1v-26" value="" style="sketch=0;outlineConnect=0;fontColor=#232F3E;gradientColor=none;fillColor=#232F3D;strokeColor=none;dashed=0;verticalLabelPosition=bottom;verticalAlign=top;align=center;html=1;fontSize=12;fontStyle=0;aspect=fixed;pointerEvents=1;shape=mxgraph.aws4.user;" parent="1" vertex="1">
          <mxGeometry x="40" y="170" width="78" height="78" as="geometry" />
        </mxCell>
        <mxCell id="hUaz1e9rTDMCQRMf4-1v-27" value="User" style="text;html=1;align=center;verticalAlign=middle;whiteSpace=wrap;rounded=0;" parent="1" vertex="1">
          <mxGeometry x="50" y="250" width="60" height="30" as="geometry" />
        </mxCell>
        <mxCell id="hUaz1e9rTDMCQRMf4-1v-28" value="Cloudflare" style="text;html=1;align=center;verticalAlign=middle;whiteSpace=wrap;rounded=0;" parent="1" vertex="1">
          <mxGeometry x="207" y="250" width="60" height="30" as="geometry" />
        </mxCell>
        <mxCell id="hUaz1e9rTDMCQRMf4-1v-29" value="Developer" style="text;html=1;align=center;verticalAlign=middle;whiteSpace=wrap;rounded=0;" parent="1" vertex="1">
          <mxGeometry x="1089" y="7.800000000000001" width="60" height="30" as="geometry" />
        </mxCell>
        <mxCell id="hUaz1e9rTDMCQRMf4-1v-30" value="GitHub Actions" style="text;html=1;align=center;verticalAlign=middle;whiteSpace=wrap;rounded=0;" parent="1" vertex="1">
          <mxGeometry x="915.6" y="24.600000000000005" width="91.2" height="30" as="geometry" />
        </mxCell>
        <mxCell id="hUaz1e9rTDMCQRMf4-1v-31" value="Terraform" style="text;html=1;align=center;verticalAlign=middle;whiteSpace=wrap;rounded=0;" parent="1" vertex="1">
          <mxGeometry x="926.8" y="178" width="60" height="30" as="geometry" />
        </mxCell>
        <mxCell id="hUaz1e9rTDMCQRMf4-1v-32" value="" style="edgeStyle=orthogonalEdgeStyle;fontSize=12;html=1;endArrow=blockThin;endFill=1;rounded=0;strokeWidth=2;endSize=4;startSize=4;dashed=0;strokeColor=#4284F3;" parent="1" edge="1">
          <mxGeometry width="100" relative="1" as="geometry">
            <mxPoint x="118.0045454545455" y="219.3" as="sourcePoint" />
            <mxPoint x="183.55" y="219.3" as="targetPoint" />
          </mxGeometry>
        </mxCell>
        <mxCell id="hUaz1e9rTDMCQRMf4-1v-35" value="" style="image;aspect=fixed;perimeter=ellipsePerimeter;html=1;align=center;shadow=0;dashed=0;spacingTop=3;image=img/lib/active_directory/internet_cloud.svg;" parent="1" vertex="1">
          <mxGeometry x="212" y="286" width="50" height="31.5" as="geometry" />
        </mxCell>
        <mxCell id="hUaz1e9rTDMCQRMf4-1v-36" value="Google Search Console" style="text;html=1;align=center;verticalAlign=middle;whiteSpace=wrap;rounded=0;" parent="1" vertex="1">
          <mxGeometry x="153.7" y="316" width="166.6" height="34" as="geometry" />
        </mxCell>
        <mxCell id="kuerMykgpRVJ2Fd1fveL-2" value="" style="edgeStyle=orthogonalEdgeStyle;fontSize=12;html=1;endArrow=blockThin;endFill=1;rounded=0;strokeWidth=2;endSize=4;startSize=4;dashed=0;strokeColor=#4284F3;entryX=0.5;entryY=0;entryDx=0;entryDy=0;" parent="1" target="hUaz1e9rTDMCQRMf4-1v-7" edge="1">
          <mxGeometry width="100" relative="1" as="geometry">
            <mxPoint x="580" y="160" as="sourcePoint" />
            <mxPoint x="750" y="319" as="targetPoint" />
            <Array as="points">
              <mxPoint x="408" y="160" />
            </Array>
          </mxGeometry>
        </mxCell>
        <mxCell id="p3YF90jsD_BG99ifKCer-7" value="" style="edgeStyle=orthogonalEdgeStyle;fontSize=12;html=1;endArrow=blockThin;endFill=1;rounded=0;strokeWidth=2;endSize=4;startSize=4;dashed=0;strokeColor=#4284F3;entryX=0.5;entryY=0;entryDx=0;entryDy=0;" parent="1" source="ESuRtYD4fdTtWtTvrHna-1" target="hUaz1e9rTDMCQRMf4-1v-11" edge="1">
          <mxGeometry width="100" relative="1" as="geometry">
            <mxPoint x="890" y="91" as="sourcePoint" />
            <mxPoint x="760" y="-60" as="targetPoint" />
            <Array as="points">
              <mxPoint x="800" y="-160" />
            </Array>
          </mxGeometry>
        </mxCell>
        <mxCell id="p3YF90jsD_BG99ifKCer-8" value="" style="edgeStyle=orthogonalEdgeStyle;fontSize=12;html=1;endArrow=blockThin;endFill=1;rounded=0;strokeWidth=2;endSize=4;startSize=4;dashed=0;strokeColor=#4284F3;entryX=0.5;entryY=0;entryDx=0;entryDy=0;" parent="1" target="hUaz1e9rTDMCQRMf4-1v-9" edge="1">
          <mxGeometry width="100" relative="1" as="geometry">
            <mxPoint x="595" y="140" as="sourcePoint" />
            <mxPoint x="710" y="142.4" as="targetPoint" />
          </mxGeometry>
        </mxCell>
        <mxCell id="p3YF90jsD_BG99ifKCer-6" value="Artifact&#xa;Registry" style="sketch=0;html=1;verticalAlign=top;labelPosition=center;verticalLabelPosition=bottom;align=center;spacingTop=-6;fontSize=11;fontStyle=1;fontColor=#999999;shape=image;aspect=fixed;imageAspect=0;image=data:image/svg+xml,PHN2ZyB4bWxucz0iaHR0cDovL3d3dy53My5vcmcvMjAwMC9zdmciIGlkPSJzdmc4MjciIHZlcnNpb249IjEuMSIgdmlld0JveD0iMCAwIDIwNS41MTIyOCAxODAuNTE4MjUiIGhlaWdodD0iMTgwLjUxODI1bW0iIHdpZHRoPSIyMDUuNTEyMjhtbSI+JiN4YTsgICYjeGE7ICA8ZGVmcyBpZD0iZGVmczgyNCIvPiYjeGE7ICA8ZyB0cmFuc2Zvcm09InRyYW5zbGF0ZSgtNC42MDIwNzI4LC01Ni43NjcxMjYpIiBpZD0ibGF5ZXIxIj4mI3hhOyAgICA8cGF0aCBkPSJtIDE0Mi4zMDMzMiwyMDIuNTM2NzUgMjYuNjMwNzgsLTE0Ljc0MDkzIHYgLTI5LjExOTQ4IGwgLTI2LjYzMDc4LDE0Ljg2ODYzIHogbSAtNC44MzQ4OSwwIC0yNi42MzA3OCwtMTQuNzQwOTMgdiAtMjkuMTE5NDggbCAyNi42MzA3OCwxNC44Njg2MyB6IG0gLTI3LjM3NTc4LC01My4zNDI2NCAyNi42MzA3NywtMTQuNzQwOTMgViAxMDUuMzMzNyBsIC0yNi42MzA3NywxNC44Njg2MyB6IG0gLTQuODM0OSwwIC0yNi42MzA3NzcsLTE0Ljc0MDkzIFYgMTA1LjMzMzcgbCAyNi42MzA3NzcsMTQuODY4NjMgeiBtIC0yNy4zNzU3ODgsNTMuMzQyNjQgMjYuNjMwNzc4LC0xNC43NDA5MyB2IC0yOS4xMTk0OCBsIC0yNi42MzA3NzgsMTQuODY4NjMgeiBtIC00LjgzNDg5MywwIC0yNi42MzA3NzksLTE0Ljc0MDkzIHYgLTI5LjExOTQ4IGwgMjYuNjMwNzc5LDE0Ljg2ODYzIHogTSAyMTAuMTE0MzYsMTg1LjQ1NzQzIFYgMTA4LjU1NzM1IEwgMTg5LjY4MTczLDk2LjcxMDk4MSBWIDE5Ny4zMjgwMiBaIG0gLTIwNS41MTIyODcyLDAgViAxMDguNTU3MzUgTCAyNS4wMzQ2OTYsOTYuNzEwOTgxIFYgMTk3LjMyODAyIFoiIHN0eWxlPSJvcGFjaXR5OjE7ZmlsbDojMzM2N2Q2O2ZpbGwtb3BhY2l0eToxO3N0cm9rZTpub25lO3N0cm9rZS13aWR0aDowLjI2NDU4M3B4O3N0cm9rZS1saW5lY2FwOmJ1dHQ7c3Ryb2tlLWxpbmVqb2luOm1pdGVyO3N0cm9rZS1vcGFjaXR5OjEiIGlkPSJwYXRoOTY3LTAtNiIvPiYjeGE7ICAgIDxwYXRoIGQ9Im0gMTM5Ljc5MjI1LDE2OC4yODM3OSAtMjYuMDI5NjQsLTE0LjUxMjkzIDI2LjAyOTY0LC0xNC40MTkzIDI2LjIxNjg5LDE0LjQxOTMgeiBNIDEwNy41ODE1NywxMTQuOTQxMTUgODEuNTUxOTM0LDEwMC40MjgyMiAxMDcuNTgxNTcsODYuMDA4OTE4IDEzMy43OTg0NiwxMDAuNDI4MjIgWiBtIC0zMi4yMTA2ODUsNTMuMzQyNjQgLTI2LjAyOTYzNCwtMTQuNTEyOTMgMjYuMDI5NjM0LC0xNC40MTkzIDI2LjIxNjg5NSwxNC40MTkzIHogbSA4Ni43OTQ3MDUsNjkuMDAxNTkgNDcuOTQ4NzcsLTI3Ljc4NzQ2IHYgLTI0LjA0MDQ5IGwgLTQ3Ljk0ODc3LDI3Ljg1ODIyIHogTSAyMTAuMTE0MzYsODQuNTUyNTU3IDE2Mi4xNjU1OSw1Ni43NjcxMjYgdiAyMy45NjU5MjEgbCA0Ny45NDg3NywyNy44MjQzMDMgeiBNIDUyLjU1MDgzNSwyMzcuMjg1MzggNC42MDIwNzI4LDIwOS40OTc5MiBWIDE4NS40NTc0MyBMIDUyLjU1MDgzNSwyMTMuMzE1NjUgWiBNIDQuNjAyMDcyOCw4NC41NTI1NTcgNTIuNTUwODM1LDU2Ljc2NzEyNiBWIDgwLjczMzA0NyBMIDQuNjAyMDcyOCwxMDguNTU3MzUgWiIgc3R5bGU9Im9wYWNpdHk6MTtmaWxsOiM1Yzg1ZGU7ZmlsbC1vcGFjaXR5OjE7c3Ryb2tlOm5vbmU7c3Ryb2tlLXdpZHRoOjAuMjY0NTgzcHg7c3Ryb2tlLWxpbmVjYXA6YnV0dDtzdHJva2UtbGluZWpvaW46bWl0ZXI7c3Ryb2tlLW9wYWNpdHk6MSIgaWQ9InBhdGg5NjktOCIvPiYjeGE7ICA8L2c+JiN4YTs8L3N2Zz4=;" parent="1" vertex="1">
          <mxGeometry x="574" y="72.7" width="42" height="37" as="geometry" />
        </mxCell>
        <mxCell id="ESuRtYD4fdTtWtTvrHna-1" value="" style="dashed=0;outlineConnect=0;html=1;align=center;labelPosition=center;verticalLabelPosition=bottom;verticalAlign=top;shape=mxgraph.webicons.github;gradientColor=#DFDEDE" parent="1" vertex="1">
          <mxGeometry x="910" y="-217.8" width="102.4" height="102.4" as="geometry" />
        </mxCell>
        <mxCell id="FnGhsBaEoGvBgOBj6ldF-43" value="" style="sketch=0;outlineConnect=0;fontColor=#232F3E;gradientColor=none;fillColor=#232F3D;strokeColor=none;dashed=0;verticalLabelPosition=bottom;verticalAlign=top;align=center;html=1;fontSize=12;fontStyle=0;aspect=fixed;pointerEvents=1;shape=mxgraph.aws4.user;" parent="1" vertex="1">
          <mxGeometry x="1080" y="-200" width="78" height="78" as="geometry" />
        </mxCell>
        <mxCell id="FnGhsBaEoGvBgOBj6ldF-44" value="Developer" style="text;html=1;align=center;verticalAlign=middle;whiteSpace=wrap;rounded=0;" parent="1" vertex="1">
          <mxGeometry x="1089" y="-122.00000000000001" width="60" height="30" as="geometry" />
        </mxCell>
        <mxCell id="FnGhsBaEoGvBgOBj6ldF-46" value="" style="edgeStyle=orthogonalEdgeStyle;fontSize=12;html=1;endArrow=blockThin;endFill=1;rounded=0;strokeWidth=2;endSize=4;startSize=4;dashed=0;strokeColor=#4284F3;exitX=0.5;exitY=1;exitDx=0;exitDy=0;" parent="1" source="hUaz1e9rTDMCQRMf4-1v-29" edge="1">
          <mxGeometry width="100" relative="1" as="geometry">
            <mxPoint x="1046.8" y="150" as="sourcePoint" />
            <mxPoint x="990" y="160" as="targetPoint" />
            <Array as="points">
              <mxPoint x="1120" y="38" />
              <mxPoint x="1120" y="160" />
            </Array>
          </mxGeometry>
        </mxCell>
        <mxCell id="FnGhsBaEoGvBgOBj6ldF-47" value="" style="edgeStyle=orthogonalEdgeStyle;fontSize=12;html=1;endArrow=blockThin;endFill=1;rounded=0;strokeWidth=2;endSize=4;startSize=4;dashed=0;strokeColor=#4284F3;entryX=0.5;entryY=0;entryDx=0;entryDy=0;" parent="1" edge="1" target="hUaz1e9rTDMCQRMf4-1v-11">
          <mxGeometry width="100" relative="1" as="geometry">
            <mxPoint x="920" y="160" as="sourcePoint" />
            <mxPoint x="816.8" y="160" as="targetPoint" />
            <Array as="points">
              <mxPoint x="800" y="160" />
            </Array>
          </mxGeometry>
        </mxCell>
        <mxCell id="FnGhsBaEoGvBgOBj6ldF-49" value="" style="edgeStyle=orthogonalEdgeStyle;fontSize=12;html=1;endArrow=blockThin;endFill=1;rounded=0;strokeWidth=2;endSize=4;startSize=4;dashed=0;strokeColor=#4284F3;" parent="1" edge="1">
          <mxGeometry width="100" relative="1" as="geometry">
            <mxPoint x="900" y="-27" as="sourcePoint" />
            <mxPoint x="810" y="-26.85" as="targetPoint" />
            <Array as="points" />
          </mxGeometry>
        </mxCell>
        <mxCell id="TupOe1kwJtUOJn_n18qq-1" value="GitHub Actions" style="text;html=1;align=center;verticalAlign=middle;whiteSpace=wrap;rounded=0;" parent="1" vertex="1">
          <mxGeometry x="911.2" y="-115.39999999999999" width="91.2" height="30" as="geometry" />
        </mxCell>
      </root>
    </mxGraphModel>
  </diagram>
</mxfile>
